<svg width="116" height="28" viewBox="0 0 116 28" fill="none" xmlns="http://www.w3.org/2000/svg">
<g id="logo">
<g id="Vector">
<path d="M17.104 13.2584C17.1164 12.3256 17.3727 11.411 17.8489 10.5997C18.3252 9.78838 19.006 9.10673 19.8279 8.61816C19.3057 7.89714 18.6169 7.30377 17.8161 6.88518C17.0152 6.46659 16.1245 6.23431 15.2146 6.20678C13.2736 6.0098 11.3919 7.32976 10.4028 7.32976C9.39453 7.32976 7.87166 6.22634 6.23177 6.25896C5.17105 6.2921 4.1373 6.59033 3.23123 7.12459C2.32516 7.65886 1.57768 8.41094 1.06161 9.30757C-1.17386 13.0497 0.493601 18.5493 2.635 21.5742C3.70638 23.0554 4.95853 24.7099 6.59693 24.6512C8.2002 24.5869 8.799 23.6627 10.7343 23.6627C12.6516 23.6627 13.2134 24.6512 14.8851 24.6139C16.6054 24.5869 17.6894 23.1261 18.7232 21.6309C19.493 20.5755 20.0853 19.4091 20.4783 18.1748C19.4788 17.7661 18.6258 17.0819 18.0258 16.2076C17.4257 15.3334 17.1052 14.3077 17.104 13.2584Z" fill="white"/>
<path d="M13.9466 4.21744C14.8846 3.12869 15.3467 1.72928 15.2348 0.316406C13.8017 0.461938 12.4779 1.12417 11.5272 2.17115C11.0624 2.68262 10.7064 3.27766 10.4795 3.92225C10.2527 4.56683 10.1595 5.24832 10.2052 5.92776C10.922 5.93489 11.6312 5.78468 12.2792 5.48842C12.9273 5.19217 13.4974 4.7576 13.9466 4.21744Z" fill="white"/>
</g>
<g id="Group">
<path id="Vector_2" d="M37.3707 20.9014H31.8994L30.5855 24.6525H28.2681L33.4504 10.7744H35.8581L41.0404 24.6525H38.6835L37.3707 20.9014ZM32.4661 19.1705H36.803L34.665 13.0827H34.6052L32.4661 19.1705Z" fill="white"/>
<path id="Vector_3" d="M52.2323 19.5942C52.2323 22.7384 50.4917 24.7586 47.865 24.7586C47.1997 24.7922 46.5379 24.644 45.9556 24.331C45.3733 24.0179 44.8939 23.5526 44.5724 22.9883H44.5227V28H42.3746V14.5345H44.4538V16.2174H44.4933C44.8297 15.6559 45.3171 15.193 45.9039 14.878C46.4906 14.563 47.1548 14.4077 47.8255 14.4286C50.4815 14.4286 52.2323 16.4586 52.2323 19.5942ZM50.0244 19.5942C50.0244 17.5456 48.9295 16.1989 47.2589 16.1989C45.6176 16.1989 44.5137 17.574 44.5137 19.5942C44.5137 21.6329 45.6176 22.9982 47.2589 22.9982C48.9295 22.9982 50.0244 21.6612 50.0244 19.5942Z" fill="white"/>
<path id="Vector_4" d="M63.7508 19.5941C63.7508 22.7384 62.0102 24.7586 59.3835 24.7586C58.7181 24.7922 58.0564 24.644 57.474 24.3309C56.8917 24.0179 56.4123 23.5526 56.0908 22.9883H56.0411V28H53.893V14.5345H55.9722V16.2174H56.0118C56.3481 15.6559 56.8355 15.193 57.4223 14.878C58.0091 14.563 58.6732 14.4077 59.3439 14.4286C62 14.4286 63.7508 16.4586 63.7508 19.5941ZM61.5429 19.5941C61.5429 17.5456 60.4479 16.1988 58.7773 16.1988C57.1361 16.1988 56.0321 17.574 56.0321 19.5941C56.0321 21.6328 57.1361 22.9982 58.7773 22.9982C60.4479 22.9982 61.5429 21.6612 61.5429 19.5941H61.5429Z" fill="white"/>
<path id="Vector_5" d="M71.363 20.7857C71.5222 22.1619 72.905 23.0655 74.7946 23.0655C76.6051 23.0655 77.9078 22.1619 77.9078 20.9209C77.9078 19.8437 77.1221 19.1988 75.2619 18.7567L73.4016 18.3234C70.7659 17.7079 69.5423 16.5161 69.5423 14.5822C69.5423 12.1877 71.7006 10.543 74.7652 10.543C77.7982 10.543 79.8775 12.1877 79.9475 14.5822H77.7791C77.6492 13.1972 76.4651 12.3612 74.7347 12.3612C73.0043 12.3612 71.8202 13.207 71.8202 14.4381C71.8202 15.4193 72.5765 15.9966 74.4265 16.4386L76.008 16.814C78.953 17.4874 80.1766 18.6312 80.1766 20.6611C80.1766 23.2575 78.0375 24.8837 74.6354 24.8837C71.4522 24.8837 69.303 23.2957 69.1641 20.7856L71.363 20.7857Z" fill="white"/>
<path id="Vector_6" d="M84.8127 12.1396V14.5341H86.8028V16.1789H84.8127V21.7569C84.8127 22.6235 85.2112 23.0273 86.086 23.0273C86.3223 23.0233 86.5581 23.0073 86.7926 22.9792V24.6141C86.3993 24.6852 85.9995 24.7174 85.5995 24.7102C83.4808 24.7102 82.6545 23.9407 82.6545 21.9784V16.1789H81.1329V14.5341H82.6544V12.1396H84.8127Z" fill="white"/>
<path id="Vector_7" d="M87.9556 19.5937C87.9556 16.4102 89.8949 14.4097 92.9189 14.4097C95.9531 14.4097 97.8833 16.4101 97.8833 19.5937C97.8833 22.786 95.9633 24.7778 92.9189 24.7778C89.8756 24.7778 87.9556 22.786 87.9556 19.5937ZM95.6946 19.5937C95.6946 17.4099 94.6595 16.121 92.9189 16.121C91.1783 16.121 90.1443 17.4197 90.1443 19.5937C90.1443 21.7863 91.1783 23.0654 92.9189 23.0654C94.6595 23.0654 95.6945 21.7863 95.6945 19.5937H95.6946Z" fill="white"/>
<path id="Vector_8" d="M99.6534 14.5344H101.702V16.2566H101.752C101.89 15.7187 102.216 15.2434 102.675 14.9105C103.133 14.5775 103.696 14.4074 104.269 14.4285C104.517 14.4277 104.763 14.4537 105.005 14.506V16.4487C104.693 16.3563 104.366 16.3139 104.04 16.3232C103.728 16.3109 103.417 16.3641 103.128 16.4791C102.839 16.5941 102.579 16.7681 102.367 16.9893C102.154 17.2105 101.994 17.4735 101.896 17.7603C101.798 18.0472 101.766 18.351 101.801 18.6511V24.6526H99.6534L99.6534 14.5344Z" fill="white"/>
<path id="Vector_9" d="M114.909 21.6805C114.62 23.5173 112.77 24.7778 110.403 24.7778C107.359 24.7778 105.469 22.8057 105.469 19.6418C105.469 16.468 107.369 14.4097 110.313 14.4097C113.208 14.4097 115.029 16.3327 115.029 19.4006V20.1121H107.638V20.2376C107.604 20.61 107.652 20.9852 107.779 21.3381C107.907 21.6911 108.11 22.0138 108.376 22.2849C108.643 22.556 108.965 22.7692 109.324 22.9103C109.682 23.0515 110.067 23.1174 110.453 23.1036C110.961 23.1496 111.47 23.0359 111.905 22.7795C112.341 22.5231 112.679 22.1376 112.87 21.6805L114.909 21.6805ZM107.648 18.6606H112.88C112.899 18.3258 112.847 17.9907 112.726 17.6764C112.605 17.3622 112.418 17.0755 112.177 16.8343C111.936 16.5932 111.646 16.4028 111.325 16.2752C111.004 16.1475 110.66 16.0854 110.313 16.0926C109.963 16.0906 109.616 16.1555 109.293 16.2838C108.969 16.412 108.675 16.601 108.427 16.8397C108.179 17.0785 107.983 17.3623 107.849 17.6748C107.715 17.9874 107.647 18.3224 107.648 18.6606V18.6606Z" fill="white"/>
</g>
<g id="Group_2">
<path id="Vector_10" d="M32.1967 0.328856C32.6471 0.297609 33.099 0.36339 33.5198 0.521452C33.9407 0.679514 34.32 0.925918 34.6305 1.24289C34.9409 1.55986 35.1748 1.9395 35.3151 2.35443C35.4554 2.76935 35.4988 3.20921 35.442 3.64229C35.442 5.77267 34.2511 6.99726 32.1967 6.99726H29.7055V0.328856H32.1967ZM30.7767 6.0542H32.0771C32.3989 6.0728 32.7209 6.02178 33.0197 5.90487C33.3186 5.78795 33.5867 5.60808 33.8046 5.37835C34.0224 5.14861 34.1846 4.8748 34.2792 4.57683C34.3738 4.27886 34.3986 3.96425 34.3516 3.65588C34.3951 3.34873 34.3679 3.03607 34.2719 2.74029C34.1758 2.4445 34.0132 2.17293 33.7958 1.94502C33.5785 1.71711 33.3116 1.53852 33.0145 1.42202C32.7173 1.30553 32.3972 1.25403 32.0771 1.27121H30.7767V6.0542Z" fill="white"/>
<path id="Vector_11" d="M36.6521 4.47827C36.6194 4.14756 36.6585 3.81388 36.767 3.49865C36.8755 3.18342 37.0509 2.89358 37.282 2.64774C37.5131 2.40189 37.7948 2.20546 38.109 2.07104C38.4233 1.93662 38.7631 1.86719 39.1067 1.86719C39.4503 1.86719 39.7901 1.93662 40.1043 2.07104C40.4186 2.20546 40.7003 2.40189 40.9314 2.64774C41.1625 2.89358 41.3379 3.18342 41.4464 3.49865C41.5548 3.81388 41.594 4.14756 41.5612 4.47827C41.5946 4.80932 41.5559 5.14345 41.4477 5.4592C41.3396 5.77494 41.1642 6.06531 40.9331 6.31164C40.7019 6.55797 40.42 6.75481 40.1055 6.88952C39.7909 7.02422 39.4507 7.09381 39.1067 7.09381C38.7627 7.09381 38.4225 7.02422 38.1079 6.88952C37.7934 6.75481 37.5115 6.55797 37.2803 6.31164C37.0491 6.06531 36.8738 5.77494 36.7656 5.4592C36.6574 5.14345 36.6188 4.80932 36.6521 4.47827ZM40.5047 4.47827C40.5047 3.38744 39.9978 2.74952 39.1084 2.74952C38.2155 2.74952 37.7132 3.38744 37.7132 4.47828C37.7132 5.57785 38.2155 6.21085 39.1084 6.21085C39.9979 6.21084 40.5047 5.57347 40.5047 4.47827H40.5047Z" fill="white"/>
<path id="Vector_12" d="M48.0867 6.99673H47.0211L45.9454 3.29038H45.8641L44.7929 6.99673H43.7375L42.3028 1.96436H43.3447L44.277 5.80435H44.3538L45.4239 1.96436H46.4093L47.4794 5.80435H47.5607L48.4886 1.96436H49.5158L48.0867 6.99673Z" fill="white"/>
<path id="Vector_13" d="M50.7222 1.9644H51.711V2.76383H51.7878C51.918 2.47671 52.1376 2.23601 52.4161 2.0753C52.6945 1.91458 53.0178 1.84186 53.341 1.86726C53.5943 1.84885 53.8486 1.88577 54.0851 1.97528C54.3216 2.0648 54.5342 2.20461 54.7072 2.38436C54.8802 2.56412 55.0092 2.77921 55.0846 3.0137C55.1599 3.24819 55.1797 3.49607 55.1426 3.73898V6.99671H54.1154V3.98837C54.1154 3.17966 53.7519 2.77748 52.9922 2.77748C52.8203 2.76974 52.6486 2.79803 52.4891 2.86043C52.3295 2.92282 52.1857 3.01784 52.0677 3.13897C51.9497 3.2601 51.8601 3.40447 51.8052 3.56219C51.7502 3.71992 51.7312 3.88726 51.7494 4.05276V6.99677H50.7222L50.7222 1.9644Z" fill="white"/>
<path id="Vector_14" d="M56.7798 0H57.807V6.99686H56.7798V0Z" fill="white"/>
<path id="Vector_15" d="M59.2347 4.47836C59.202 4.14763 59.2412 3.81394 59.3497 3.49869C59.4582 3.18345 59.6336 2.8936 59.8647 2.64775C60.0959 2.4019 60.3776 2.20546 60.6918 2.07104C61.0061 1.93662 61.3459 1.86719 61.6895 1.86719C62.0332 1.86719 62.373 1.93662 62.6873 2.07104C63.0015 2.20546 63.2832 2.4019 63.5144 2.64775C63.7455 2.8936 63.9209 3.18345 64.0294 3.49869C64.1379 3.81394 64.1771 4.14763 64.1444 4.47836C64.1777 4.80943 64.139 5.14357 64.0308 5.45931C63.9226 5.77505 63.7472 6.06541 63.516 6.31173C63.2848 6.55806 63.0029 6.75489 62.6883 6.88959C62.3738 7.02429 62.0336 7.09388 61.6895 7.09388C61.3455 7.09388 61.0053 7.02429 60.6907 6.88959C60.3762 6.75489 60.0943 6.55806 59.8631 6.31173C59.6319 6.06541 59.4565 5.77505 59.3483 5.45931C59.2401 5.14357 59.2014 4.80943 59.2347 4.47836ZM63.0873 4.47836C63.0873 3.38753 62.5804 2.74962 61.691 2.74962C60.7981 2.74962 60.2958 3.38753 60.2958 4.47837C60.2958 5.57795 60.7981 6.21094 61.691 6.21094C62.5804 6.21093 63.0873 5.57357 63.0873 4.47836H63.0873Z" fill="white"/>
<path id="Vector_16" d="M65.2256 5.57352C65.2256 4.66767 65.9232 4.14545 67.1614 4.07123L68.5713 3.99265V3.55828C68.5713 3.02677 68.2078 2.72665 67.5057 2.72665C66.9323 2.72665 66.535 2.93019 66.421 3.28598H65.4265C65.5315 2.42161 66.3724 1.86719 67.5531 1.86719C68.858 1.86719 69.594 2.49527 69.594 3.55828V6.99668H68.6052V6.28947H68.5239C68.3589 6.54315 68.1273 6.74996 67.8526 6.88877C67.578 7.02759 67.2701 7.09344 66.9605 7.0796C66.742 7.10157 66.5212 7.07903 66.3122 7.01343C66.1033 6.94783 65.9109 6.84063 65.7474 6.69873C65.584 6.55683 65.4531 6.38339 65.3632 6.18959C65.2733 5.99578 65.2264 5.78592 65.2256 5.57352ZM68.5713 5.14351V4.72279L67.3003 4.80136C66.5835 4.84774 66.2584 5.08348 66.2584 5.52713C66.2584 5.98005 66.6648 6.24362 67.2236 6.24362C67.3873 6.25964 67.5527 6.24366 67.7099 6.19662C67.8671 6.14958 68.0129 6.07245 68.1386 5.96981C68.2644 5.86717 68.3675 5.74112 68.4418 5.59917C68.5161 5.45721 68.5602 5.30225 68.5713 5.14351Z" fill="white"/>
<path id="Vector_17" d="M70.9443 4.47851C70.9443 2.88836 71.7898 1.88102 73.1048 1.88102C73.4301 1.86652 73.7529 1.94185 74.0356 2.0982C74.3182 2.25454 74.549 2.48544 74.7009 2.7639H74.7777V0H75.8049V6.99685H74.8206V6.20178H74.7393C74.5756 6.47837 74.3368 6.70639 74.0487 6.86116C73.7606 7.01592 73.4342 7.09153 73.1048 7.07979C71.7808 7.07985 70.9443 6.07247 70.9443 4.47851ZM72.0054 4.47851C72.0054 5.54588 72.5258 6.18817 73.3961 6.18817C74.2619 6.18817 74.7969 5.53662 74.7969 4.48288C74.7969 3.43405 74.2562 2.77322 73.3961 2.77322C72.5314 2.77322 72.0054 3.41986 72.0054 4.47851H72.0054Z" fill="white"/>
<path id="Vector_18" d="M80.0546 4.47827C80.0218 4.14756 80.061 3.81388 80.1694 3.49865C80.2779 3.18342 80.4533 2.89358 80.6844 2.64774C80.9155 2.40189 81.1972 2.20546 81.5115 2.07104C81.8257 1.93662 82.1655 1.86719 82.5091 1.86719C82.8527 1.86719 83.1925 1.93662 83.5068 2.07104C83.821 2.20546 84.1027 2.40189 84.3338 2.64774C84.5649 2.89358 84.7403 3.18342 84.8488 3.49865C84.9573 3.81388 84.9964 4.14756 84.9637 4.47827C84.997 4.80932 84.9584 5.14345 84.8502 5.4592C84.742 5.77494 84.5667 6.06531 84.3355 6.31164C84.1043 6.55797 83.8224 6.75481 83.5079 6.88952C83.1933 7.02422 82.8531 7.09381 82.5091 7.09381C82.1651 7.09381 81.8249 7.02422 81.5103 6.88952C81.1958 6.75481 80.9139 6.55797 80.6827 6.31164C80.4516 6.06531 80.2762 5.77494 80.1681 5.4592C80.0599 5.14345 80.0212 4.80932 80.0546 4.47827ZM83.9071 4.47827C83.9071 3.38744 83.4003 2.74952 82.5108 2.74952C81.6179 2.74952 81.1157 3.38744 81.1157 4.47828C81.1157 5.57785 81.618 6.21085 82.5108 6.21085C83.4003 6.21084 83.9071 5.57347 83.9071 4.47827Z" fill="white"/>
<path id="Vector_19" d="M86.3422 1.9644H87.3311V2.76383H87.4078C87.538 2.47671 87.7577 2.23601 88.0361 2.0753C88.3145 1.91458 88.6378 1.84186 88.961 1.86726C89.2143 1.84885 89.4686 1.88577 89.7051 1.97528C89.9416 2.0648 90.1542 2.20461 90.3272 2.38436C90.5002 2.56412 90.6292 2.77921 90.7046 3.0137C90.7799 3.24819 90.7998 3.49607 90.7626 3.73898V6.99671H89.7354V3.98837C89.7354 3.17966 89.3719 2.77748 88.6122 2.77748C88.4403 2.76974 88.2686 2.79803 88.1091 2.86043C87.9495 2.92282 87.8058 3.01784 87.6877 3.13897C87.5697 3.2601 87.4801 3.40447 87.4252 3.56219C87.3702 3.71992 87.3512 3.88726 87.3694 4.05276V6.99677H86.3422V1.9644Z" fill="white"/>
<path id="Vector_20" d="M96.566 0.711426V1.98725H97.6937V2.8238H96.566V5.41147C96.566 5.93861 96.7906 6.16943 97.302 6.16943C97.4329 6.16903 97.5637 6.16138 97.6937 6.14651V6.97378C97.5092 7.00569 97.3223 7.02266 97.1349 7.02453C95.9926 7.02453 95.5377 6.63599 95.5377 5.66575V2.82376H94.7114V1.98721H95.5377V0.711426H96.566Z" fill="white"/>
<path id="Vector_21" d="M99.0976 0H100.116V2.77321H100.197C100.334 2.4834 100.559 2.24134 100.843 2.08002C101.127 1.9187 101.456 1.84597 101.784 1.87173C102.036 1.85847 102.288 1.89914 102.522 1.99083C102.756 2.08252 102.966 2.22297 103.137 2.40216C103.308 2.58135 103.436 2.79486 103.512 3.02747C103.588 3.26007 103.61 3.50604 103.577 3.74781V6.99687H102.548V3.99282C102.548 3.18902 102.161 2.78193 101.435 2.78193C101.259 2.76793 101.081 2.79139 100.915 2.85069C100.749 2.90998 100.598 3.00366 100.473 3.12518C100.348 3.24671 100.253 3.39313 100.192 3.55422C100.132 3.7153 100.109 3.88715 100.125 4.05775V6.99684H99.0977L99.0976 0Z" fill="white"/>
<path id="Vector_22" d="M109.566 5.638C109.427 6.09792 109.124 6.49576 108.712 6.76191C108.3 7.02806 107.804 7.14558 107.311 7.0939C106.968 7.10265 106.627 7.03915 106.312 6.9078C105.997 6.77645 105.715 6.58041 105.487 6.33327C105.258 6.08613 105.088 5.79382 104.987 5.47663C104.887 5.15944 104.86 4.82496 104.906 4.49642C104.861 4.16686 104.889 3.83166 104.989 3.51352C105.089 3.19537 105.258 2.90171 105.486 2.65241C105.713 2.40311 105.994 2.20399 106.308 2.06853C106.622 1.93307 106.962 1.86444 107.306 1.86727C108.754 1.86727 109.628 2.82392 109.628 4.40417V4.75072H105.953V4.80637C105.937 4.99105 105.961 5.17694 106.023 5.35212C106.086 5.5273 106.186 5.6879 106.316 5.82364C106.447 5.95937 106.605 6.06724 106.781 6.14033C106.957 6.21342 107.147 6.25011 107.339 6.24805C107.585 6.27657 107.834 6.23379 108.054 6.12515C108.275 6.01652 108.457 5.84693 108.577 5.63796L109.566 5.638ZM105.953 4.0162H108.582C108.595 3.84731 108.571 3.67766 108.512 3.51816C108.453 3.35866 108.36 3.21284 108.24 3.09007C108.119 2.96729 107.973 2.87028 107.811 2.80527C107.65 2.74025 107.476 2.70867 107.301 2.71255C107.123 2.71039 106.947 2.74264 106.782 2.8074C106.617 2.87216 106.468 2.96811 106.342 3.08961C106.217 3.2111 106.118 3.35568 106.051 3.51482C105.984 3.67396 105.951 3.84443 105.953 4.0162H105.953Z" fill="white"/>
</g>
</g>
</svg>
