<svg width="109" height="29" viewBox="0 0 109 29" fill="none" xmlns="http://www.w3.org/2000/svg">
<g id="logo">
<g id="Group">
<path id="Vector" d="M35.226 4.46785C35.226 5.33224 34.991 6.02169 34.5211 6.52592C33.9948 7.13305 33.2993 7.44176 32.4535 7.44176C31.6358 7.44176 30.9498 7.13305 30.3765 6.51563C29.8032 5.89821 29.5212 5.12643 29.5212 4.22088C29.5212 3.30504 29.8032 2.54355 30.3765 1.92613C30.9498 1.30871 31.6358 1 32.4535 1C32.8576 1 33.2429 1.08232 33.6095 1.25726C33.976 1.43219 34.2673 1.65858 34.4929 1.94671L33.9948 2.4921C33.6189 2.00845 33.1114 1.76149 32.4535 1.76149C31.8614 1.76149 31.3445 1.98787 30.9122 2.45094C30.4799 2.90372 30.2637 3.50056 30.2637 4.23117C30.2637 4.96179 30.4799 5.55863 30.9122 6.0114C31.3445 6.46418 31.8614 6.70086 32.4535 6.70086C33.0832 6.70086 33.6095 6.47447 34.0324 6.0114C34.3049 5.71298 34.4647 5.29108 34.5023 4.75598H32.4535V4.01507H35.1884C35.2072 4.16943 35.226 4.32378 35.226 4.46785Z" fill="white" stroke="white" stroke-width="0.2" stroke-miterlimit="10"/>
<path id="Vector_2" d="M39.5586 1.89528H36.9928V3.85044H39.3048V4.59135H36.9928V6.54652H39.5586V7.308H36.2692V1.13379H39.5586V1.89528V1.89528Z" fill="white" stroke="white" stroke-width="0.2" stroke-miterlimit="10"/>
<path id="Vector_3" d="M42.6129 7.308H41.8892V1.89528H40.3103V1.13379H44.1824V1.89528H42.6035V7.308H42.6129Z" fill="white" stroke="white" stroke-width="0.2" stroke-miterlimit="10"/>
<path id="Vector_4" d="M46.9925 7.308V1.13379H47.7162V7.308H46.9925Z" fill="white" stroke="white" stroke-width="0.2" stroke-miterlimit="10"/>
<path id="Vector_5" d="M50.9303 7.308H50.2067V1.89528H48.6278V1.13379H52.4998V1.89528H50.9209V7.308H50.9303Z" fill="white" stroke="white" stroke-width="0.2" stroke-miterlimit="10"/>
<path id="Vector_6" d="M59.84 6.50534C59.2856 7.13305 58.5995 7.44176 57.7724 7.44176C56.9454 7.44176 56.2593 7.13305 55.7048 6.50534C55.1503 5.87763 54.8778 5.11614 54.8778 4.22088C54.8778 3.32562 55.1503 2.55384 55.7048 1.93642C56.2593 1.30871 56.9454 1 57.7724 1C58.5901 1 59.2762 1.30871 59.84 1.93642C60.3945 2.56413 60.6765 3.32562 60.6765 4.22088C60.6671 5.12643 60.3945 5.88792 59.84 6.50534ZM56.2405 5.99082C56.654 6.45389 57.1709 6.68027 57.7724 6.68027C58.3739 6.68027 58.8908 6.45389 59.3043 5.99082C59.7179 5.52775 59.934 4.9412 59.934 4.22088C59.934 3.50056 59.7273 2.91401 59.3043 2.45094C58.8908 1.98787 58.3739 1.76149 57.7724 1.76149C57.1709 1.76149 56.654 1.98787 56.2405 2.45094C55.827 2.91401 55.6108 3.50056 55.6108 4.22088C55.6108 4.9412 55.827 5.52775 56.2405 5.99082Z" fill="white" stroke="white" stroke-width="0.2" stroke-miterlimit="10"/>
<path id="Vector_7" d="M61.6912 7.308V1.13379H62.5747L65.319 5.93938H65.3471L65.319 4.7457V1.13379H66.0426V7.308H65.2908L62.4243 2.27602H62.3961L62.4243 3.4697V7.308H61.6912Z" fill="white" stroke="white" stroke-width="0.2" stroke-miterlimit="10"/>
</g>
<path id="Vector_8" d="M54.699 16.3121C52.4904 16.3121 50.6859 18.154 50.6859 20.6855C50.6859 23.2066 52.4904 25.0589 54.699 25.0589C56.9076 25.0589 58.712 23.2066 58.712 20.6855C58.712 18.154 56.9076 16.3121 54.699 16.3121ZM54.699 23.3404C53.4866 23.3404 52.4434 22.2496 52.4434 20.6855C52.4434 19.111 53.4866 18.0305 54.699 18.0305C55.9113 18.0305 56.9546 19.111 56.9546 20.6855C56.9546 22.2496 55.902 23.3404 54.699 23.3404ZM45.9398 16.3121C43.7312 16.3121 41.9268 18.154 41.9268 20.6855C41.9268 23.2066 43.7312 25.0589 45.9398 25.0589C48.1484 25.0589 49.9529 23.2066 49.9529 20.6855C49.9529 18.154 48.1484 16.3121 45.9398 16.3121ZM45.9398 23.3404C44.7274 23.3404 43.6842 22.2496 43.6842 20.6855C43.6842 19.111 44.7274 18.0305 45.9398 18.0305C47.1522 18.0305 48.1954 19.111 48.1954 20.6855C48.1954 22.2496 47.1522 23.3404 45.9398 23.3404ZM35.5266 17.6601V19.5124H39.5866C39.4644 20.5517 39.1449 21.3235 38.6656 21.8483C38.0735 22.4966 37.1524 23.2066 35.5359 23.2066C33.036 23.2066 31.0812 21.0045 31.0812 18.2672C31.0812 15.53 33.036 13.3279 35.5359 13.3279C36.8799 13.3279 37.8667 13.9041 38.5904 14.6553L39.784 13.3484C38.7689 12.2885 37.425 11.4756 35.5266 11.4756C32.1056 11.4756 29.2297 14.5215 29.2297 18.2775C29.2297 22.0232 32.1056 25.0794 35.5266 25.0794C37.378 25.0794 38.7689 24.4209 39.8591 23.1757C40.9775 21.9512 41.3253 20.2224 41.3253 18.8332C41.3253 18.401 41.2971 17.9997 41.2313 17.6704H35.5266V17.6601ZM78.11 19.1007C77.7811 18.1232 76.7661 16.3121 74.6891 16.3121C72.6308 16.3121 70.9204 18.082 70.9204 20.6855C70.9204 23.1346 72.612 25.0589 74.8864 25.0589C76.7191 25.0589 77.7811 23.8343 78.2134 23.1243L76.8506 22.1261C76.3995 22.8567 75.7792 23.3404 74.8864 23.3404C73.9936 23.3404 73.3545 22.8876 72.9504 22.0129L78.298 19.5947L78.11 19.1007ZM72.659 20.562C72.612 18.8744 73.8526 18.01 74.7454 18.01C75.4409 18.01 76.033 18.3907 76.2304 18.9361L72.659 20.562ZM68.317 24.8016H70.0745V11.9387H68.317V24.8016ZM65.4412 17.2896H65.3754C64.9807 16.7751 64.2288 16.3121 63.2702 16.3121C61.2684 16.3121 59.4357 18.2363 59.4357 20.706C59.4357 23.1551 61.2684 25.0691 63.2702 25.0691C64.2194 25.0691 64.9807 24.6061 65.3754 24.071H65.4318V24.6987C65.4318 26.376 64.6141 27.2713 63.2984 27.2713C62.227 27.2713 61.5597 26.4275 61.2871 25.7174L59.7552 26.4172C60.1969 27.58 61.3623 29.0001 63.2984 29.0001C65.3566 29.0001 67.0953 27.6726 67.0953 24.4414V16.5796H65.4318V17.2896H65.4412ZM63.4205 23.3404C62.2082 23.3404 61.1932 22.229 61.1932 20.706C61.1932 19.1625 62.2082 18.0408 63.4205 18.0408C64.6141 18.0408 65.554 19.1728 65.554 20.706C65.5634 22.229 64.6235 23.3404 63.4205 23.3404ZM86.3429 11.9387H82.1419V24.8016H83.8993V19.924H86.3523C88.2977 19.924 90.2056 18.3804 90.2056 15.9313C90.2056 13.4822 88.2789 11.9387 86.3429 11.9387ZM86.3805 18.1334H83.8899V13.7189H86.3805C87.6962 13.7189 88.4387 14.9126 88.4387 15.921C88.4387 16.9295 87.6962 18.1334 86.3805 18.1334ZM97.226 16.2915C95.9573 16.2915 94.6415 16.9089 94.0964 18.2569L95.6565 18.967C95.9855 18.2569 96.6058 18.0203 97.2542 18.0203C98.1565 18.0203 99.0869 18.6171 99.0963 19.677V19.8108C98.7768 19.6153 98.1001 19.3168 97.2636 19.3168C95.5814 19.3168 93.8803 20.3253 93.8803 22.2084C93.8803 23.9269 95.2524 25.0383 96.7937 25.0383C97.9685 25.0383 98.6264 24.462 99.0305 23.7828H99.0869V24.781H100.779V19.8519C100.788 17.5675 99.2279 16.2915 97.226 16.2915ZM97.0099 23.3404C96.4366 23.3404 95.6377 23.0214 95.6377 22.2496C95.6377 21.2617 96.634 20.881 97.4986 20.881C98.2692 20.881 98.6358 21.0662 99.0963 21.3132C98.9647 22.4966 98.0249 23.3404 97.0099 23.3404ZM106.953 16.5693L104.942 22.1467H104.886L102.799 16.5693H100.91L104.04 24.3694L102.254 28.7016H104.087L108.908 16.5693H106.953ZM91.1642 24.8016H92.9216V11.9387H91.1642V24.8016Z" fill="white"/>
<g id="Loco">
<path id="Vector_9" d="M0.470641 1.68922C0.198092 2.00822 0.0383205 2.50216 0.0383205 3.12987V25.8921C0.0383205 26.5301 0.198092 27.0241 0.470641 27.3328L0.536428 27.4048L12.1809 14.6654V14.511V14.3566L0.536428 1.61719L0.470641 1.68922Z" fill="url(#paint0_linear_1_540)"/>
<path id="Vector_10" d="M16.0624 18.9155L12.1809 14.6656V14.5112V14.3569L16.0624 10.1069L16.147 10.1584L20.7427 13.0191C22.0585 13.832 22.0585 15.1698 20.7427 15.993L16.147 18.8537L16.0624 18.9155Z" fill="url(#paint1_linear_1_540)"/>
<path id="Vector_11" d="M16.1472 18.8538L12.1812 14.5112L0.470963 27.333C0.903283 27.8372 1.61755 27.899 2.4258 27.3948L16.1472 18.8538Z" fill="url(#paint2_linear_1_540)"/>
<path id="Vector_12" d="M16.1473 10.1685L2.4165 1.62752C1.60825 1.12329 0.89398 1.18504 0.46166 1.68926L12.1813 14.511L16.1473 10.1685Z" fill="url(#paint3_linear_1_540)"/>
<g id="Group_2">
<path id="Vector_13" opacity="0.2" d="M16.0631 18.7612L2.41681 27.2508C1.65555 27.7241 0.969477 27.6933 0.537157 27.2611L0.47137 27.3331L0.537157 27.4051C0.978875 27.8373 1.65555 27.8682 2.41681 27.3948L16.1476 18.8538L16.0631 18.7612Z" fill="#2E3A59"/>
<path id="Vector_14" opacity="0.12" d="M0.471071 27.1892C0.198523 26.8702 0.0387528 26.3762 0.0387528 25.7485V25.9029C0.0387528 26.5409 0.198523 27.0348 0.471071 27.3435L0.536859 27.2715L0.471071 27.1892Z" fill="#2E3A59"/>
</g>
<path id="Vector_15" opacity="0.12" d="M20.7428 15.849L16.053 18.7611L16.1376 18.8538L20.7334 15.993C21.3912 15.5814 21.7202 15.0463 21.7202 14.5112C21.6732 14.9949 21.3443 15.4785 20.7428 15.849Z" fill="#2E3A59"/>
<path id="Vector_16" opacity="0.25" d="M2.4162 1.77188L20.7428 13.1736C21.3349 13.544 21.6732 14.0174 21.7296 14.5113C21.7296 13.9762 21.4007 13.4309 20.7428 13.0295L2.4162 1.62782C1.10044 0.814879 0.0290432 1.49404 0.0290432 3.1405V3.29486C0.0290432 1.63811 1.10984 0.958945 2.4162 1.77188Z" fill="white"/>
</g>
</g>
<defs>
<linearGradient id="paint0_linear_1_540" x1="11.1468" y1="2.89288" x2="-6.05215" y2="18.6008" gradientUnits="userSpaceOnUse">
<stop stop-color="#00A0FF"/>
<stop offset="0.00657445" stop-color="#00A1FF"/>
<stop offset="0.2601" stop-color="#00BEFF"/>
<stop offset="0.5122" stop-color="#00D2FF"/>
<stop offset="0.7604" stop-color="#00DFFF"/>
<stop offset="1" stop-color="#00E3FF"/>
</linearGradient>
<linearGradient id="paint1_linear_1_540" x1="22.4573" y1="14.5126" x2="-0.283525" y2="14.5126" gradientUnits="userSpaceOnUse">
<stop stop-color="#FFE000"/>
<stop offset="0.4087" stop-color="#FFBD00"/>
<stop offset="0.7754" stop-color="#FFA500"/>
<stop offset="1" stop-color="#FF9C00"/>
</linearGradient>
<linearGradient id="paint2_linear_1_540" x1="13.9922" y1="16.874" x2="-9.33091" y2="38.1752" gradientUnits="userSpaceOnUse">
<stop stop-color="#FF3A44"/>
<stop offset="1" stop-color="#C31162"/>
</linearGradient>
<linearGradient id="paint3_linear_1_540" x1="-2.48253" y1="-5.88835" x2="7.93228" y2="3.62348" gradientUnits="userSpaceOnUse">
<stop stop-color="#32A071"/>
<stop offset="0.0685" stop-color="#2DA771"/>
<stop offset="0.4762" stop-color="#15CF74"/>
<stop offset="0.8009" stop-color="#06E775"/>
<stop offset="1" stop-color="#00F076"/>
</linearGradient>
</defs>
</svg>
