<svg width="14" height="14" viewBox="0 0 14 14" fill="none" xmlns="http://www.w3.org/2000/svg">
<g id="star">
<path id="icon_star" d="M12.8166 5.59664C12.7764 5.46691 12.6695 5.37236 12.5407 5.35278L8.92401 4.80182L7.30651 1.36622C7.24896 1.24392 7.13013 1.1665 7.00004 1.1665C6.86993 1.1665 6.75112 1.24392 6.69354 1.36622L5.07598 4.80182L1.45933 5.35278C1.33061 5.37236 1.22363 5.46691 1.18343 5.59662C1.14321 5.72635 1.17676 5.86874 1.26993 5.96393L3.8869 8.63817L3.2692 12.4143C3.24719 12.5487 3.29992 12.6846 3.40517 12.7648C3.46471 12.8101 3.53524 12.8332 3.6061 12.8332C3.66051 12.8332 3.71511 12.8196 3.7651 12.792L7.00002 11.0091L10.2348 12.792C10.35 12.8555 10.4895 12.8449 10.5947 12.7647C10.7 12.6846 10.7527 12.5487 10.7308 12.4143L10.1129 8.63817L12.7301 5.9639C12.8233 5.86874 12.8568 5.72635 12.8166 5.59664Z" fill="#FFA800"/>
</g>
</svg>
