<svg width="74" height="53" viewBox="0 0 74 53" fill="none" xmlns="http://www.w3.org/2000/svg">
<g id="youtube-play" clip-path="url(#clip0_1_496)">
<g id="Vector" filter="url(#filter0_d_1_496)">
<path d="M72.128 8.49194C71.2856 5.30789 68.8039 2.80023 65.6528 1.94922C59.9412 0.402832 37.0384 0.402832 37.0384 0.402832C37.0384 0.402832 14.1358 0.402832 8.42406 1.94922C5.27297 2.80036 2.7912 5.30789 1.94888 8.49194C0.418457 14.2632 0.418457 26.3045 0.418457 26.3045C0.418457 26.3045 0.418457 38.3457 1.94888 44.117C2.7912 47.301 5.27297 49.7042 8.42406 50.5552C14.1358 52.1016 37.0384 52.1016 37.0384 52.1016C37.0384 52.1016 59.9411 52.1016 65.6528 50.5552C68.8039 49.7042 71.2856 47.301 72.128 44.117C73.6584 38.3457 73.6584 26.3045 73.6584 26.3045C73.6584 26.3045 73.6584 14.2632 72.128 8.49194V8.49194ZM29.5479 37.237V15.3719L48.6901 26.3047L29.5479 37.237V37.237Z" fill="#212121" fill-opacity="0.8" shape-rendering="crispEdges"/>
</g>
</g>
<defs>
<filter id="filter0_d_1_496" x="-3.58154" y="0.402832" width="81.2399" height="59.6987" filterUnits="userSpaceOnUse" color-interpolation-filters="sRGB">
<feFlood flood-opacity="0" result="BackgroundImageFix"/>
<feColorMatrix in="SourceAlpha" type="matrix" values="0 0 0 0 0 0 0 0 0 0 0 0 0 0 0 0 0 0 127 0" result="hardAlpha"/>
<feOffset dy="4"/>
<feGaussianBlur stdDeviation="2"/>
<feComposite in2="hardAlpha" operator="out"/>
<feColorMatrix type="matrix" values="0 0 0 0 0 0 0 0 0 0 0 0 0 0 0 0 0 0 0.25 0"/>
<feBlend mode="normal" in2="BackgroundImageFix" result="effect1_dropShadow_1_496"/>
<feBlend mode="normal" in="SourceGraphic" in2="effect1_dropShadow_1_496" result="shape"/>
</filter>
<clipPath id="clip0_1_496">
<rect width="73.2399" height="51.6988" fill="white" transform="translate(0.418457 0.402832)"/>
</clipPath>
</defs>
</svg>
